<svg xmlns="http://www.w3.org/2000/svg" viewBox="0 0 427.05 397.68"><defs><style>.cls-1{isolation:isolate;}.cls-2{fill:#101224;}.cls-2,.cls-3,.cls-4{mix-blend-mode:multiply;}.cls-3{fill:#ea5732;}.cls-4{fill:#009fe3;}</style></defs><g class="cls-1"><g id="Layer_2" data-name="Layer 2"><g id="Layer_1-2" data-name="Layer 1"><circle class="cls-2" cx="136.69" cy="179.78" r="97.55"/><circle class="cls-3" cx="195.69" cy="97.55" r="97.55"/><circle class="cls-4" cx="288.41" cy="179.78" r="97.55"/><path class="cls-2" d="M8.93,292.34H20.32V373.5H8.93Zm4.91,59.17,29.81-35.95h13.4L13.12,365ZM27.3,340.07l7.31-7.6,25.29,41H47.51Z" transform="translate(-8.93)"/><path class="cls-2" d="M69.39,292.34H80.78V373.5H69.39Zm4.91,59.17,29.81-35.95h13.4L73.58,365Zm13.46-11.44,7.31-7.6,25.29,41H108Z" transform="translate(-8.93)"/><path class="cls-2" d="M123.15,315.56H135l10.27,41.36,14.46-41.36h7.92l14.46,41.36,10.27-41.36h11.9L186.45,373.5h-8.6l-14.12-40-14.12,40H141Z" transform="translate(-8.93)"/><path class="cls-4" d="M234.35,390.22a31,31,0,0,1-14.57-13.81q-4.86-9.21-4.86-23.11v-7.6q0-3.79.06-7.59.11-15.08,5-25.06a32.27,32.27,0,0,1,14.55-15q9.64-5,24.22-5,14.29,0,24,5a32.4,32.4,0,0,1,14.57,15q4.89,10,4.88,25v17.42q0,9.66-4.29,14.23t-12.51,4.58q-9.27,0-13.84-4.35T267,356.81l12.73-.33a7.23,7.23,0,0,0,1.14,4.44,4.22,4.22,0,0,0,3.55,1.47,3.67,3.67,0,0,0,3.21-1.36,7.7,7.7,0,0,0,1-4.38V338.11q0-10.77-3.37-18a23.24,23.24,0,0,0-10-10.86q-6.65-3.63-16.42-3.63-10,0-16.63,3.6a23,23,0,0,0-10,10.8q-3.37,7.2-3.49,18.09-.06,3.75-.06,7.54v7.65q0,9.7,3.35,16.16a21.48,21.48,0,0,0,10.05,9.65q6.7,3.21,16.8,3.21h16.64v12.51H258.74Q244.07,394.83,234.35,390.22Zm7.67-22.1q-4.61-6.22-4.6-18.79v-9.6q0-12.56,5.27-18.79t15.89-6.22q10.6,0,15.85,6.22t5.25,18.85v18l-7,3.23q-1.11,6.65-5.27,10t-11.47,3.32Q246.63,374.34,242,368.12Zm21.3-10.53q1.56-2.56,1.56-7.81V339.12q0-5.14-1.56-7.68a5.19,5.19,0,0,0-4.74-2.54q-6.48,0-6.48,10.27v10.61q0,5.25,1.62,7.81a5.35,5.35,0,0,0,4.86,2.57A5.16,5.16,0,0,0,263.32,357.59Z" transform="translate(-8.93)"/><path class="cls-3" d="M334.66,341.52,340.13,352,325.4,373.5H312.78Zm.34,5.63-21.33-31.59h12.68l16.63,26,21.94,32H352.3Zm3.68-11,12.68-20.54H364l-20.55,31.26Z" transform="translate(-8.93)"/><path class="cls-3" d="M371.34,315.56H383l17.81,50.35-6.31,12.34Zm51.3,0L398,387.07a17,17,0,0,1-3.52,6.28,12.33,12.33,0,0,1-5.36,3.32,26.17,26.17,0,0,1-7.81,1H379V386.73h2.29a8.77,8.77,0,0,0,5.05-1.28A10.28,10.28,0,0,0,389.6,381L411,315.56Z" transform="translate(-8.93)"/><path class="cls-2" d="M424,361.56H436V373.5H424Z" transform="translate(-8.93)"/></g></g></g></svg>