<svg xmlns="http://www.w3.org/2000/svg" viewBox="0 0 932.37 277.33"><defs><style>.cls-1{isolation:isolate;}.cls-2{fill:#fff;}.cls-2,.cls-3,.cls-4,.cls-5{mix-blend-mode:multiply;}.cls-3{fill:#009fe3;}.cls-4{fill:#ea5732;}.cls-5{fill:#daddf1;}</style></defs><g class="cls-1"><g id="Layer_2" data-name="Layer 2"><g id="Layer_1-2" data-name="Layer 1"><path class="cls-2" d="M364.34,75.14h15.15v108H364.34Zm6.54,78.71L410.53,106h17.82l-58.44,65.79Zm17.89-15.22,9.73-10.1,33.63,54.58H415.65Z"/><path class="cls-2" d="M444.76,75.14H459.9v108H444.76Zm6.53,78.71L490.94,106h17.82l-58.43,65.79Zm17.9-15.22,9.72-10.1,33.64,54.58H496.06Z"/><path class="cls-2" d="M516.26,106h15.82l13.66,55L565,106h10.54l19.24,55,13.66-55h15.81l-23.76,77.08H589l-18.79-53.24-18.78,53.24H540Z"/><path class="cls-3" d="M664.17,205.34A41.21,41.21,0,0,1,644.79,187q-6.46-12.25-6.46-30.74v-10.1c0-3.37,0-6.73.08-10.1q.14-20.06,6.64-33.34a43,43,0,0,1,19.34-19.9q12.86-6.6,32.23-6.61,19,0,31.89,6.65a43.08,43.08,0,0,1,19.38,20q6.5,13.33,6.5,33.23V159.2q0,12.84-5.72,18.93T732,184.22q-12.33,0-18.42-5.79t-6.09-17.53l16.93-.44q0,3.93,1.53,5.9a5.57,5.57,0,0,0,4.71,2,4.9,4.9,0,0,0,4.27-1.82q1.31-1.81,1.3-5.83V136q0-14.32-4.49-24a30.82,30.82,0,0,0-13.33-14.44q-8.84-4.83-21.83-4.82-13.29,0-22.13,4.79A30.64,30.64,0,0,0,661.16,112q-4.49,9.59-4.64,24.06-.07,5-.07,10v10.18q0,12.92,4.45,21.49a28.55,28.55,0,0,0,13.37,12.85q8.91,4.26,22.35,4.27h22.13v16.63H696.62Q677.09,211.47,664.17,205.34Zm10.21-29.4q-6.12-8.28-6.13-25V138.18q0-16.7,7-25t21.13-8.28q14.1,0,21.08,8.28t7,25.06v24l-9.35,4.31q-1.49,8.83-7,13.25t-15.26,4.42Q680.52,184.22,674.38,175.94Zm28.33-14q2.07-3.41,2.08-10.39V137.37q0-6.84-2.08-10.21a6.9,6.9,0,0,0-6.31-3.38q-8.62,0-8.62,13.66v14.11q0,7,2.16,10.39a7.13,7.13,0,0,0,6.46,3.42A6.89,6.89,0,0,0,702.71,161.94Z"/><path class="cls-4" d="M797.6,140.56l7.28,14-19.6,28.59H768.5Zm.45,7.5-28.37-42h16.86l22.13,34.53,29.18,42.55H821.07Zm4.9-14.7L819.8,106h16.86l-27.33,41.58Z"/><path class="cls-4" d="M846.39,106h15.44l23.69,67-8.39,16.41Zm68.23,0L881.8,201.15a22.46,22.46,0,0,1-4.67,8.35,16.3,16.3,0,0,1-7.13,4.42,34.94,34.94,0,0,1-10.4,1.34h-3V200.7h3a11.77,11.77,0,0,0,6.72-1.7,13.69,13.69,0,0,0,4.35-5.87L899.18,106Z"/><path class="cls-4" d="M916.48,167.22h15.89v15.89H916.48Z"/><circle class="cls-4" cx="156.55" cy="97.55" r="97.55"/><circle class="cls-3" cx="249.26" cy="179.78" r="97.55"/><circle class="cls-5" cx="97.55" cy="179.78" r="97.55"/></g></g></g></svg>